<svg id="Layer_1" data-name="Layer 1" xmlns="http://www.w3.org/2000/svg" viewBox="0 0 1080 395"><defs><style>.cls-1{font-size:34.91px;fill:#00011c;font-family:Outfit-ExtraBold, Outfit;font-weight:800;}.cls-2{letter-spacing:-0.01em;}.cls-3{letter-spacing:-0.01em;}.cls-4{letter-spacing:0em;}.cls-5{letter-spacing:-0.02em;}.cls-6{letter-spacing:-0.03em;}.cls-7{letter-spacing:-0.01em;}.cls-8{letter-spacing:-0.03em;}.cls-9{letter-spacing:-0.01em;}.cls-10{letter-spacing:0.01em;}.cls-11{letter-spacing:-0.07em;}.cls-12{letter-spacing:-0.08em;}.cls-13{letter-spacing:-0.01em;}.cls-14{letter-spacing:0em;}.cls-15{letter-spacing:-0.04em;}</style></defs><text class="cls-1" transform="translate(291.04 228.71)"><tspan class="cls-2">R</tspan><tspan class="cls-3" x="22.65" y="0">E</tspan><tspan class="cls-4" x="44.12" y="0">C</tspan><tspan class="cls-5" x="68.28" y="0">R</tspan><tspan x="90.86" y="0">UITMEN</tspan><tspan class="cls-5" x="227.11" y="0">T</tspan><tspan class="cls-6" x="249.2" y="0"> </tspan><tspan class="cls-7" x="254.68" y="0">A</tspan><tspan x="280.3" y="0" xml:space="preserve">ND  </tspan><tspan class="cls-8" x="345.89" y="0">C</tspan><tspan x="369.07" y="0">O</tspan><tspan class="cls-9" x="397.42" y="0">N</tspan><tspan class="cls-10" x="423.04" y="0">S</tspan><tspan x="444.26" y="0">U</tspan><tspan class="cls-11" x="468.98" y="0">L</tspan><tspan class="cls-12" x="486.46" y="0">T</tspan><tspan class="cls-13" x="506.26" y="0">A</tspan><tspan class="cls-14" x="531.88" y="0">N</tspan><tspan class="cls-8" x="557.99" y="0">CY </tspan><tspan class="cls-15" x="609.89" y="0">A</tspan><tspan class="cls-14" x="634.26" y="0">GEN</tspan><tspan class="cls-8" x="709.87" y="0">CY</tspan></text><rect x="165.6" y="107.79" width="28.44" height="202.98"/><rect x="204.39" y="123.31" width="28.44" height="187.47"/><rect x="163.67" y="-60.93" width="28.44" height="316.75" transform="translate(80.44 275.34) rotate(-90)"/><rect x="283.9" y="202.82" width="28.44" height="187.47" transform="translate(1.57 594.67) rotate(-90)"/></svg>