<svg id="Layer_1" data-name="Layer 1" xmlns="http://www.w3.org/2000/svg" viewBox="0 0 1080 395"><defs><style>.cls-1{font-size:54.89px;font-family:Outfit-ExtraBold, Outfit;font-weight:800;}.cls-1,.cls-15{fill:#fff;}.cls-2{letter-spacing:-0.01em;}.cls-3{letter-spacing:-0.01em;}.cls-4{letter-spacing:-0.02em;}.cls-5{letter-spacing:0em;}.cls-6{letter-spacing:-0.03em;}.cls-7{letter-spacing:-0.01em;}.cls-8{letter-spacing:0em;}.cls-9{letter-spacing:0em;}.cls-10{letter-spacing:0.01em;}.cls-11{letter-spacing:-0.07em;}.cls-12{letter-spacing:-0.08em;}.cls-13{letter-spacing:-0.04em;}.cls-14{letter-spacing:-0.03em;}</style></defs><text class="cls-1" transform="translate(384.64 204.46)"><tspan class="cls-2">R</tspan><tspan class="cls-3" x="35.62" y="0">E</tspan><tspan x="69.38" y="0">C</tspan><tspan class="cls-4" x="107.36" y="0">R</tspan><tspan class="cls-5" x="142.88" y="0">UITMEN</tspan><tspan class="cls-4" x="357.1" y="0">T</tspan><tspan class="cls-6" x="391.85" y="0"> </tspan><tspan class="cls-7" x="400.47" y="0">A</tspan><tspan class="cls-8" x="440.75" y="0">ND </tspan><tspan class="cls-6" x="0" y="65.87">C</tspan><tspan class="cls-9" x="36.45" y="65.87">O</tspan><tspan class="cls-2" x="81.02" y="65.87">N</tspan><tspan class="cls-10" x="121.3" y="65.87">S</tspan><tspan x="154.67" y="65.87">U</tspan><tspan class="cls-11" x="193.54" y="65.87">L</tspan><tspan class="cls-12" x="221.03" y="65.87">T</tspan><tspan class="cls-7" x="252.16" y="65.87">A</tspan><tspan x="292.44" y="65.87">N</tspan><tspan class="cls-6" x="333.5" y="65.87">CY </tspan><tspan class="cls-13" x="415.12" y="65.87">A</tspan><tspan x="453.43" y="65.87">GEN</tspan><tspan class="cls-14" x="572.32" y="65.87">CY</tspan></text><polygon class="cls-15" points="259.78 291.83 259.78 204.62 204.89 133.67 204.89 291.83 204.89 336.56 204.89 338.59 341.44 338.59 377.61 291.83 259.78 291.83"/><polygon class="cls-15" points="91.24 80.41 53.5 129.2 139.84 129.2 139.84 265.65 194.69 336.56 194.73 336.56 194.73 129.2 261.69 129.2 299.44 80.41 91.24 80.41"/></svg>